<?xml version="1.0" standalone="no"?>
<!DOCTYPE svg PUBLIC "-//W3C//DTD SVG 20010904//EN"
 "http://www.w3.org/TR/2001/REC-SVG-20010904/DTD/svg10.dtd">
<svg version="1.0" xmlns="http://www.w3.org/2000/svg"
 width="512.000000pt" height="512.000000pt" viewBox="0 0 512.000000 512.000000"
 preserveAspectRatio="xMidYMid meet">

<g transform="translate(0.000000,512.000000) scale(0.100000,-0.100000)"
fill="#000000" stroke="none">
<path d="M2420 5114 c-76 -10 -198 -37 -270 -61 -155 -52 -377 -183 -402 -238
-8 -18 -8 -31 0 -49 10 -22 6 -29 -39 -74 -47 -47 -52 -50 -90 -45 -50 7 -70
-10 -141 -121 -92 -143 -152 -296 -184 -471 -25 -136 -15 -395 19 -527 98
-374 335 -670 670 -838 86 -43 235 -97 320 -115 l27 -5 0 -1048 c0 -576 5
-1085 10 -1132 12 -110 31 -171 77 -247 54 -89 108 -143 143 -143 35 0 89 54
143 143 46 76 65 137 77 247 5 47 10 556 10 1132 l0 1048 28 5 c161 34 370
128 500 224 244 181 407 423 490 729 24 90 26 112 26 307 0 195 -2 217 -26
307 -66 244 -174 433 -342 601 -176 176 -404 299 -656 353 -73 15 -320 27
-390 18z m208 -3676 l-3 -1113 -29 -62 c-16 -35 -32 -63 -36 -63 -4 0 -20 28
-36 63 l-29 62 -3 1113 -2 1112 70 0 70 0 -2 -1112z"/>
</g>
</svg>
